<?xml version="1.0" encoding="UTF-8"?>
<svg id="Layer_1" xmlns="http://www.w3.org/2000/svg" viewBox="0 0 146 79.73">
  <polygon points="36.93 24.31 35.82 41.37 45.63 41.37 60.1 2.81 50.98 2.81 44.49 20.1 45.61 2.81 35.91 2.81 21.44 41.37 30.56 41.37 36.93 24.31"/>
  <polygon points="55.93 41.37 70.4 2.81 61.28 2.81 46.82 41.37 55.93 41.37"/>
  <path d="M143.39,25.89c-.2.05-18.97,5.13-40.62,11l1.08-3h-10.63l3.49-9.35h8.76l2.7-7.19h-8.76l3-8.12h9.23l2.45-6.43h-27.81l-9.55,11.57,4.41-11.57h-9.23l-14.35,38.57h9.12l6.12-16.13.42,16.13,13.11-.03c-24.85,6.73-48.41,13.12-48.41,13.12-13.32,3.74-28.52-4.41-17.53-26.38C7.65,43.04-4.36,62.94,6.25,72.11c10.28,8.88,23.14,3.62,31.9.12,8.76-3.51,105.65-45.58,105.65-45.58.93-.47.76-1.05-.41-.76ZM81.67,18.7l13.78-15.13-13.2,35.23-.58-20.1Z"/>
</svg>