<?xml version="1.0" encoding="UTF-8"?>
<svg id="Layer_1" xmlns="http://www.w3.org/2000/svg" viewBox="0 0 1102.67 393.73">
  <path d="M540.59,228.98c-26.7,27.94-51.87,56.89-61.14,96-4.78,20.15-.52,37.74,15.57,51.7.57.5,1.01,1.14,1.96,2.22h-146.58c3.54-5.84,6.75-10.97,9.8-16.2,39.28-67.31,78.56-134.62,117.81-201.94,28.31-48.56,56.63-97.1,84.77-145.76,3.31-5.72,7.03-8.47,14.05-8.3,21.3.52,42.62.32,63.93.26,3.68-.01,5.35.65,6.01,5,4.94,32.41,10.48,64.72,15.47,97.12,4.98,32.41,9.37,64.92,14.34,97.33,3.66,23.88,7.79,47.7,11.82,71.52.68,4,.24,5.99-4.57,7.15-23.75,5.74-47.27,12.44-71.05,18.02-13.01,3.05-26.31,5.8-39.6,6.47-26.18,1.31-44.36-19.14-41.87-45.15,1.03-10.7,4-20.73,8.68-30.33.7-1.43,1.27-2.92,1.9-4.38-.43-.24-.87-.49-1.3-.73Z"/>
  <path d="M282.84,114.54c-1.77,4.02-3.63,8.01-5.28,12.08-6.95,17.16-13.77,34.37-20.85,51.47-.55,1.34-2.81,2.78-4.29,2.8-13.75.21-27.5.13-41.38.13,4.2-10.28,8.57-20.77,12.79-31.31,18.63-46.5,37.27-92.99,55.68-139.58,1.32-3.34,3.29-3.2,5.73-3.2,13.3-.04,26.59-.02,40.54-.02-6.6,16.09-13.11,31.97-19.63,47.85.17.18.34.37.51.55,1.29-1.09,2.72-2.04,3.84-3.27,12.25-13.37,24.62-26.64,36.58-40.25,3.64-4.14,7.78-5.06,12.78-5.04,26.97.11,53.95.13,80.92.17,14.8.02,29.61,0,45.05,0-.42,1.63-.58,2.87-1.04,3.99-3.4,8.26-6.9,16.47-10.26,24.74-1.09,2.68-2.71,3.66-5.69,3.6-10.15-.2-20.32.02-30.47-.11-4.84-.06-7.9,1.44-9.66,6.45-2.95,8.41-6.69,16.54-10.06,24.8-.67,1.64-1.17,3.34-1.95,5.57h40.77c-.09,1.34.08,2.35-.25,3.15-3.38,8.27-6.97,16.45-10.19,24.79-1.06,2.75-2.67,3.31-5.27,3.27-9.99-.12-19.99.02-29.98-.17-4.7-.09-7.82,1.46-9.62,6.06-4.43,11.33-9.14,22.56-14.05,34.57h52.01c-3.46,8.19-6.57,15.57-9.71,22.93-4.43,10.38-4.44,10.52-15.64,10.73-9.15.17-18.32-.11-27.48-.1-31.47.02-62.94.07-94.41.1-1.15,0-2.31-.12-4.22-.22-1.55-22.12-3.09-44.2-4.63-66.28-.4-.08-.79-.16-1.19-.24ZM330.05,176.08c.58.2,1.16.4,1.73.6,22.15-54.99,44.31-109.98,66.46-164.97-2.23.69-3.65,1.82-4.85,3.14-21.8,24.01-43.48,48.14-65.45,71.99-4.01,4.35-5.34,8.82-4.77,14.46,1.01,9.91,1.63,19.87,2.55,29.79,1.38,15,2.88,29.99,4.32,44.98Z"/>
  <path d="M870.55,378.01c3.78-17.61,7.5-34.71,11.13-51.84,6.24-29.43,12.37-58.88,18.76-88.28.41-1.88,2.27-4.09,4.03-4.92,9.73-4.59,19.65-8.78,29.5-13.14,1.15-.51,2.21-1.21,3.31-1.82-.15-.42-.29-.84-.44-1.26-11.12,3.21-22.25,6.42-34.03,9.82,2.06-10.01,3.96-19.52,5.97-29,6.16-29.1,12.39-58.2,18.52-87.31.51-2.41.73-4.36,4.08-4.35,22.47.12,44.94.06,68.04.06-2.41,11.55-4.74,22.72-7.07,33.9.4.24.8.49,1.2.73,1.16-1.17,2.35-2.3,3.46-3.51,13.66-14.89,28.74-27.66,49.02-32.58,16.06-3.9,32.16-4.3,48.32-.41,2.57.62,3.3,1.83,2.59,4.21-5.89,19.78-11.85,39.54-17.56,59.37-.91,3.17-2.2,3.37-4.99,2.69-16.11-3.92-32.4-4.15-48.34.11-24.78,6.62-41.08,22.85-47.56,47.5-5.63,21.41-9.5,43.28-14.09,64.96-5.86,27.66-11.65,55.33-17.52,82.98-2.62,12.34-2.67,12.3-15.35,12.28-19.31-.02-38.63,0-57.94,0-.81,0-1.61-.11-3.03-.21Z"/>
  <path d="M126.13,75.39c2.28-5.22,4.66-10.4,6.82-15.67,6.57-16.06,13.21-32.09,19.46-48.28,1.45-3.75,3.59-4.59,7.09-4.56,12.95.09,25.91.04,39.56.04-.43,1.54-.7,3.06-1.27,4.46-20.74,51.14-41.64,102.22-62.19,153.44-6.5,16.21-6.06,16.36-23.6,16.28-10.47-.05-20.94,0-31.84,0v-68.98c-.35-.1-.71-.19-1.06-.29-2.07,5-4.14,10-6.21,15-6.88,16.64-13.82,33.25-20.58,49.95-1.23,3.04-2.85,4.41-6.23,4.37-13.46-.14-26.93-.06-40.6-.06,3.27-8.07,6.72-16.57,10.16-25.08C34.36,109.76,53.1,63.53,71.79,17.28c4.19-10.36,4.11-10.42,15.18-10.45,12.46-.03,24.91,0,37.71,0v68.13c.48.15.96.29,1.44.44Z"/>
  <path d="M758.79,265.57c2.49-10.79,4.9-20.53,6.97-30.34,7.62-36.04,15.11-72.1,22.69-108.15,1.22-5.82,2.81-11.56,3.94-17.39.65-3.36,2.5-4.1,5.59-4.06,13.65.16,27.31.15,40.96.18,8.96.02,17.92,0,27.51,0-1.14,5.66-2.15,10.93-3.28,16.18-6.43,30.06-12.93,60.11-19.3,90.18-1.71,8.08-3.12,16.23-4.56,24.37-.94,5.31-3.76,8.02-9.23,9.41-19.69,4.97-39.24,10.49-58.82,15.85-3.91,1.07-7.77,2.34-12.46,3.77Z"/>
  <path d="M261.92,6.93c-7.15,17.96-14.16,35.6-21.21,53.22-14.98,37.45-30.11,74.85-44.84,112.4-2.48,6.33-5.51,9.31-12.75,8.9-11.59-.66-23.24-.18-35.43-.18,2.94-7.29,5.92-14.58,8.83-21.9,19.71-49.45,39.45-98.89,59.01-148.39,1.18-3,2.57-4.13,5.68-4.1,13.29.11,26.58.05,40.71.05Z"/>
  <path d="M735.38,377.96c4.21-19.7,8.38-39.08,12.48-58.46,1.23-5.81,2.07-11.73,3.59-17.46.52-1.96,2.22-4.35,4.01-5.14,25.29-11.08,50.69-21.91,76.07-32.78.27-.11.62-.01,1.7-.01-1.64,7.32-3.33,14.47-4.84,21.66-5.7,27.33-11.33,54.67-17.03,82-.4,1.92-1.54,3.73-1.75,5.65-.39,3.67-2.46,4.51-5.73,4.48-9.81-.08-19.63.04-29.44.05-12.79.02-25.58,0-39.05,0Z"/>
  <path d="M563.95,378.76c43.02-18.27,86.48-36.73,130.63-55.48,2.83,17.98,5.72,36.31,8.75,55.48h-139.38Z"/>
  <path d="M796.03,90.72c2.65-11.67,5.07-22.93,7.77-34.13,3.08-12.78,3.18-12.74,16.39-12.69,18.29.06,36.58.08,54.87.12,1.46,0,2.92,0,5.04,0-2.47,11-4.83,21.42-7.15,31.84-.83,3.71-1.97,7.41-2.27,11.17-.31,3.9-2.56,3.97-5.43,3.95-17.62-.12-35.25-.18-52.87-.26-5.14-.02-10.27,0-16.35,0Z"/>
</svg>