<?xml version="1.0" encoding="UTF-8"?>
<svg id="Layer_1" xmlns="http://www.w3.org/2000/svg" viewBox="0 0 146 67.71">
  <path d="M20.39,3.8C7.65,18.76-4.36,38.67,6.25,47.83c10.28,8.88,23.14,3.62,31.9.12,8.76-3.51,105.65-45.58,105.65-45.58.94-.47.76-1.05-.41-.76-.47.12-105.47,28.57-105.47,28.57-13.32,3.74-28.52-4.41-17.53-26.38Z"/>
  <path d="M126.18,64.37c12.74-14.96,24.75-34.86,14.14-44.03-10.28-8.88-23.14-3.62-31.9-.12C99.65,23.73,2.77,65.8,2.77,65.8c-.94.47-.76,1.05.41.76.47-.12,105.47-28.57,105.47-28.57,13.32-3.74,28.52,4.41,17.53,26.38Z"/>
</svg>