<?xml version="1.0" encoding="UTF-8"?>
<svg id="Layer_1" xmlns="http://www.w3.org/2000/svg" viewBox="0 0 146 63.18">
  <polygon points="38.28 61.76 22.97 61.76 24.71 35.16 14.77 61.76 .56 61.76 23.11 1.64 38.23 1.64 36.49 28.6 46.61 1.64 60.82 1.64 38.28 61.76"/>
  <polygon points="40.12 61.76 62.67 1.64 76.88 1.64 54.33 61.76 40.12 61.76"/>
  <path d="M141.18,11.66l3.82-10.02h-43.36l-14.89,18.04,6.87-18.04h-14.39l-22.37,60.13h14.21l9.55-25.14.65,25.14,43.61-.09,4.15-11.57h-16.58l5.45-14.58h13.66l4.2-11.21h-13.66l4.68-12.66h14.39ZM95.37,57.75l-.91-31.34L115.95,2.82l-20.58,54.93Z"/>
</svg>