<?xml version="1.0" encoding="UTF-8"?>
<svg id="Layer_1" xmlns="http://www.w3.org/2000/svg" viewBox="0 0 146 144.99">
  <defs>
    <style>
      .cls-1 {
        fill: #005497;
        fill-rule: evenodd;
      }
    </style>
  </defs>
  <path class="cls-1" d="M131.38,125.52c-3.41-.54-6.45-.71-6.45-2.54,0-.71.42-1.46,1.08-1.95.58-.46,2.12-.62,3.16-.62s2.16.54,2.83,1.25c.41.5.92,1.29,1,2.12h5.53c-.13-2.04-1-4.03-2.58-5.16-1.54-1.12-3.54-2.5-6.28-2.5s-5.2.08-6.98,1.41c-1.79,1.29-3.08,3.45-3.08,5.32,0,1.08-.08,2.37.33,3.16.46.79,1.79,2.41,2.83,3.04,1.45.83,4.86,1.16,6.74,1.66,1.54.37,3.41.46,3.83,1.99.25.92-.04,1.75-.87,2.29-.79.54-1.99.91-3.33.91s-2.7-.42-3.37-1.25c-.58-.79-.92-1.54-1.37-2.74h-5.53c.12,2.54,1.54,5.03,3.28,6.44,1.7,1.37,3.99,2.04,6.9,2.04s5.45-.5,7.32-1.83c1.83-1.33,2.83-3.82,2.83-5.86,0-1.75-.5-3.12-1.29-4.2-1.62-2.12-4.53-2.7-6.53-2.99h0Z"/>
  <polygon class="cls-1" points="59.28 139.74 64.89 139.74 64.89 116.45 59.28 116.45 59.28 139.74 59.28 139.74 59.28 139.74"/>
  <polygon class="cls-1" points="59.28 114.87 64.93 114.87 64.93 109.26 59.28 109.26 59.28 114.87 59.28 114.87 59.28 114.87"/>
  <path class="cls-1" d="M51.09,119.53c-2.08-1.62-4.74-2.74-7.65-2.83h-.29c-6.45,0-11.68,5.24-11.68,11.64s5.24,11.73,11.68,11.73h.29c2.91-.04,5.57-1.21,7.61-3.2h0l.04,2.87h5.32v-30.48h-5.32v10.27h0ZM43.48,135.29h-.04c-3.83,0-6.94-3.12-6.94-6.94s3.12-6.94,6.94-6.94h.04c3.78,0,6.94,3.12,6.94,6.94s-3.16,6.94-6.94,6.94h0Z"/>
  <path class="cls-1" d="M85.93,119.44c-2.08-1.62-4.74-2.75-7.65-2.83h-.29c-6.44,0-11.73,5.28-11.73,11.68s5.28,11.73,11.73,11.73h.29c2.91-.08,5.53-1.25,7.61-3.24h0v2.87h5.32v-30.44h-5.32l.04,10.23h0ZM78.28,135.24c-3.83,0-6.99-3.16-6.99-6.98s3.16-6.9,6.99-6.9,6.99,3.12,6.99,6.9-3.16,6.98-6.99,6.98h0Z"/>
  <path class="cls-1" d="M23.98,116.45v2.2h0c-1.08-1.16-1.58-1.54-2.83-2-1.12-.41-2.66-.79-4.16-.83h-.25c-1.79,0-3.37.29-4.78.87-1.37.58-2.66,1.5-3.83,2.75-1.04,1.08-1.87,2.41-2.49,3.87-.54,1.45-.83,2.95-.83,4.57,0,3.54,1.16,6.49,3.49,8.78,2.29,2.33,5.2,3.53,8.69,3.53h.04c1.41,0,2.95-.42,4.2-.87,1.25-.46,2.16-.83,2.74-1.66h0v2.12l5.41-.04-.04-23.33-5.36.04h0ZM17.03,134.91h-.04c-3.83,0-6.9-3.08-6.9-6.9s3.08-6.9,6.9-6.9h.04c3.78,0,6.9,3.12,6.9,6.9s-3.12,6.9-6.9,6.9h0Z"/>
  <path class="cls-1" d="M112.17,116.37l.04,2.2h0c-1.08-1.12-1.62-1.5-2.83-2-1.16-.41-2.66-.75-4.16-.79h-.25c-1.79,0-3.37.29-4.78.83-1.41.58-2.7,1.54-3.83,2.74-1.08,1.08-1.91,2.41-2.5,3.91-.54,1.41-.87,2.95-.87,4.57,0,3.49,1.21,6.45,3.53,8.78,2.25,2.29,5.2,3.49,8.69,3.49,1.46,0,2.99-.37,4.2-.87,1.25-.46,2.21-.83,2.79-1.66h0v2.12l5.41-.04-.09-23.29h-5.36ZM105.22,134.87c-3.82-.04-6.94-3.12-6.94-6.94s3.12-6.86,6.94-6.9c3.83,0,6.94,3.12,6.94,6.9s-3.12,6.94-6.94,6.94h0Z"/>
  <path class="cls-1" d="M62.98,89.45h-24.45c7.31,4.52,15.86,7.52,25.58,9.54h0l-1.14-9.54h0ZM81.62,89.47l-1.46,8.96h0c9.77-1.8,18.38-4.63,25.86-8.96h-24.41ZM78.81,89.43l-13.44.02h0c1.89,3.92,4.29,7.22,7.03,10.37,2.7-3.21,4.5-6.54,6.41-10.39h0ZM114.96,83.47l-85.52-.04h0c-2.85-2.27-4.78-3.45-7.07-6.47h99.77c-2.23,2.44-4.78,4.65-7.18,6.51h0ZM127.71,69.54l-110.52.04h0c-1.48-2.06-3.17-4.95-4.22-7.24h118.96c-1.11,2.57-2.61,4.95-4.22,7.2h0ZM48.62,54.5l-38.59.02h0c-3.54-8.16-5.76-16.58-6.84-27.04,19.88,3.54,35.23,11.7,45.43,27.02h0ZM88.15,54.57h-31.73c-.71-20.42,4.95-41.14,15.88-53.61,11.1,12.15,16.84,32.78,15.86,53.61h0ZM135.19,54.52l-39.34.02h0c10.86-15.28,26.46-23.91,46.67-26.98-1.26,10.22-3.62,18.9-7.33,26.96h0Z"/>
</svg>