<?xml version="1.0" encoding="UTF-8"?>
<svg id="Layer_1" xmlns="http://www.w3.org/2000/svg" viewBox="0 0 146 94.78">
  <defs>
    <style>
      .cls-1 {
        fill: #005497;
        fill-rule: evenodd;
      }
    </style>
  </defs>
  <path class="cls-1" d="M64.15,81.71h-21.56c6.44,3.99,13.98,6.63,22.56,8.41h0l-1-8.41h0ZM80.59,81.73l-1.28,7.9h0c8.62-1.59,16.21-4.08,22.81-7.9h-21.52ZM78.11,81.69l-11.85.02h0c1.66,3.46,3.78,6.37,6.2,9.15,2.38-2.83,3.97-5.76,5.65-9.17h0ZM109.99,76.44l-75.41-.04h0c-2.51-2-4.21-3.04-6.24-5.71h87.98c-1.97,2.15-4.21,4.1-6.33,5.74h0ZM121.23,64.16l-97.46.04h0c-1.3-1.81-2.8-4.37-3.72-6.39h104.91c-.98,2.27-2.31,4.36-3.72,6.35h0ZM49.13,47.62c.82,1.05,1.61,2.14,2.36,3.27h0l-34.03.02h0c-3.12-7.2-5.08-14.63-6.03-23.85,16.06,2.86,28.77,9.14,37.7,20.56M86.35,50.95h-27.98c-.62-18.01,4.37-36.28,14-47.28,9.79,10.71,14.85,28.91,13.98,47.28h0ZM127.83,50.91l-34.69.02h0c9.58-13.47,23.34-21.09,41.16-23.79-1.11,9.01-3.19,16.67-6.46,23.77h0Z"/>
</svg>