<?xml version="1.0" encoding="UTF-8"?>
<svg id="Layer_1" xmlns="http://www.w3.org/2000/svg" viewBox="0 0 146 37.79">
  <defs>
    <style>
      .cls-1 {
        fill: #005497;
        fill-rule: evenodd;
      }
    </style>
  </defs>
  <path class="cls-1" d="M137.52,19.58c-3.7-.59-6.99-.77-6.99-2.75,0-.77.45-1.58,1.17-2.12.63-.5,2.3-.68,3.43-.68s2.34.59,3.07,1.35c.45.54.99,1.4,1.08,2.3h6c-.14-2.21-1.08-4.38-2.8-5.59-1.67-1.22-3.83-2.71-6.81-2.71s-5.64.09-7.58,1.53c-1.94,1.4-3.34,3.74-3.34,5.77,0,1.17-.09,2.57.36,3.43.5.86,1.94,2.62,3.07,3.29,1.58.9,5.28,1.26,7.3,1.8,1.67.4,3.7.5,4.15,2.16.27.99-.05,1.89-.95,2.48-.86.59-2.16.99-3.61.99s-2.93-.45-3.65-1.35c-.63-.86-.99-1.67-1.49-2.97h-6c.14,2.75,1.67,5.46,3.56,6.99,1.85,1.49,4.33,2.21,7.49,2.21s5.91-.54,7.94-1.99c1.98-1.44,3.07-4.15,3.07-6.36,0-1.89-.54-3.38-1.4-4.56-1.76-2.3-4.92-2.93-7.08-3.25h0Z"/>
  <polygon class="cls-1" points="59.32 35 65.41 35 65.41 9.75 59.32 9.75 59.32 35 59.32 35 59.32 35"/>
  <polygon class="cls-1" points="59.32 8.03 65.45 8.03 65.45 1.94 59.32 1.94 59.32 8.03 59.32 8.03 59.32 8.03"/>
  <path class="cls-1" d="M50.43,13.08c-2.26-1.76-5.14-2.97-8.3-3.07h-.32c-6.99,0-12.67,5.68-12.67,12.63s5.68,12.72,12.67,12.72h.32c3.16-.04,6.04-1.31,8.25-3.47h0l.05,3.11h5.77V1.94h-5.77v11.14h0ZM42.18,30.18h-.04c-4.15,0-7.53-3.38-7.53-7.53s3.38-7.53,7.53-7.53h.04c4.1,0,7.53,3.38,7.53,7.53s-3.43,7.53-7.53,7.53h0Z"/>
  <path class="cls-1" d="M88.23,12.99c-2.25-1.76-5.14-2.98-8.3-3.07h-.32c-6.99,0-12.72,5.73-12.72,12.67s5.73,12.72,12.72,12.72h.32c3.16-.09,6-1.35,8.25-3.52h0v3.11h5.77V1.9h-5.77l.04,11.09h0ZM79.93,30.13c-4.15,0-7.58-3.43-7.58-7.57s3.43-7.49,7.58-7.49,7.58,3.38,7.58,7.49-3.43,7.57-7.58,7.57h0Z"/>
  <path class="cls-1" d="M21.03,9.75v2.39h0c-1.17-1.26-1.71-1.67-3.07-2.17-1.22-.45-2.89-.86-4.51-.9h-.27c-1.94,0-3.65.32-5.19.95-1.49.63-2.89,1.62-4.15,2.98-1.13,1.17-2.03,2.62-2.71,4.2-.59,1.58-.9,3.2-.9,4.96,0,3.84,1.26,7.04,3.79,9.52,2.48,2.53,5.64,3.83,9.43,3.83h.05c1.53,0,3.2-.45,4.55-.95,1.35-.5,2.34-.9,2.98-1.8h0v2.3l5.86-.04-.04-25.3-5.82.04h0ZM13.5,29.77h-.05c-4.15,0-7.49-3.34-7.49-7.49s3.34-7.49,7.49-7.49h.05c4.1,0,7.49,3.38,7.49,7.49s-3.38,7.49-7.49,7.49h0Z"/>
  <path class="cls-1" d="M116.68,9.66l.05,2.39h0c-1.17-1.22-1.76-1.62-3.07-2.17-1.26-.45-2.89-.81-4.51-.86h-.27c-1.94,0-3.65.31-5.19.9-1.53.63-2.93,1.67-4.15,2.98-1.17,1.17-2.07,2.62-2.71,4.24-.59,1.53-.95,3.2-.95,4.96,0,3.79,1.31,6.99,3.83,9.52,2.44,2.48,5.64,3.79,9.43,3.79,1.58,0,3.25-.41,4.56-.95,1.35-.5,2.39-.9,3.02-1.8h0v2.3l5.86-.05-.09-25.26h-5.82ZM109.15,29.72c-4.15-.04-7.53-3.38-7.53-7.53s3.38-7.44,7.53-7.49c4.15,0,7.53,3.38,7.53,7.49s-3.38,7.53-7.53,7.53h0Z"/>
</svg>