<?xml version="1.0" encoding="UTF-8"?>
<svg id="Layer_1" xmlns="http://www.w3.org/2000/svg" viewBox="0 0 146 99.11">
  <path d="M136.2,82.48c-.21-.1-.51-.21-.84-.34-1.28-.44-3.37-.99-6.28-1.62-2.55-.57-3.84-1.31-3.84-2.23,0-.65.23-1.18.68-1.56.59-.51,1.64-.76,3.16-.76s2.66.34,3.31.99c.4.4.7,1.12.89,2.13h6.11c0-1.5-.3-2.78-.91-3.86-.61-1.08-1.51-1.94-2.71-2.59-.13-.09-.25-.15-.4-.21-1.67-.78-3.88-1.18-6.64-1.18-3.35,0-5.88.89-7.57,2.68-1.35,1.43-2,3.18-2,5.25,0,2.57,1.27,4.43,3.84,5.63.97.46,3.33,1.12,7.08,1.92,2.51.55,3.77,1.33,3.77,2.32,0,.59-.25,1.1-.8,1.56-.7.59-1.75.89-3.16.89-1.87,0-3.2-.32-3.98-.93-.78-.59-1.18-1.45-1.18-2.55h-6.41c0,1.46.31,2.72.92,3.81.61,1.09,1.54,1.99,2.77,2.7,1.96,1.12,4.53,1.69,7.71,1.69,2.13,0,4.03-.36,5.65-1.05.34-.15.63-.29.95-.46,2.51-1.39,3.77-3.6,3.77-6.64,0-2.49-1.28-4.34-3.88-5.57Z"/>
  <polygon points="92.68 64.01 103.17 64.01 120.48 64.01 103.17 35.18 84.03 3.35 76.15 8.1 63.63 15.62 76.15 36.47 92.68 64.01"/>
  <path d="M109.98,73.52c-1.94-1.26-4.26-2-6.74-2h-.06c-6.87.04-12.46,5.65-12.46,12.52s5.59,12.48,12.46,12.52h.06c2.49,0,4.8-.74,6.74-2v1.31h5.76v-23.71h-5.76v1.37ZM109.98,85.34c-.61,3.16-3.41,5.59-6.74,5.59h-.06c-3.77-.04-6.83-3.12-6.83-6.89s3.06-6.85,6.83-6.87h.06c3.33,0,6.13,2.4,6.74,5.57v2.61Z"/>
  <path d="M82.96,73.52c-1.96-1.26-4.26-2-6.75-2h-.06c-6.87.04-12.46,5.65-12.46,12.52s5.59,12.48,12.46,12.52h.06c2.49,0,4.78-.74,6.75-2v1.31h5.75v-31.85h-5.75v9.5ZM82.96,85.34c-.61,3.16-3.42,5.59-6.75,5.59h-.06c-3.77-.04-6.83-3.12-6.83-6.89s3.06-6.85,6.83-6.87h.06c3.33,0,6.13,2.4,6.75,5.57v2.61Z"/>
  <polygon points="76.15 64.01 82.94 64.01 76.15 52.67 59.48 24.93 39.73 36.82 39.06 37.22 39.73 38.34 55.16 64.01 55.16 64.01 55.2 69.66 61.46 69.62 61.42 64.01 76.15 64.01"/>
  <rect x="55.18" y="71.52" width="6.26" height="24.35"/>
  <path d="M46.56,73.52c-1.96-1.26-4.28-2-6.77-2h-.06c-6.87.04-12.46,5.65-12.46,12.52s5.59,12.48,12.46,12.52h.06c2.49,0,4.81-.74,6.77-2v1.31h5.75v-31.85h-5.75v9.5ZM46.56,85.34c-.61,3.16-3.41,5.59-6.77,5.59h-.06c-3.77-.04-6.83-3.12-6.83-6.89s3.05-6.85,6.83-6.87h.06c3.35,0,6.15,2.4,6.77,5.57v2.61Z"/>
  <polygon points="39.73 64.01 45.42 64.01 39.73 54.53 34.92 46.54 14.5 58.81 17.62 64.01 39.73 64.01"/>
  <path d="M19.27,73.52c-1.96-1.26-4.28-2-6.77-2h-.06c-6.85.04-12.43,5.65-12.43,12.52s5.59,12.48,12.43,12.52h.06c2.49,0,4.8-.74,6.77-2v1.31h5.75v-23.71h-5.75v1.37ZM19.27,85.34c-.61,3.16-3.41,5.59-6.77,5.59h-.06c-3.75-.04-6.81-3.12-6.81-6.89s3.05-6.85,6.81-6.87h.06c3.35,0,6.15,2.4,6.77,5.57v2.61Z"/>
</svg>