<?xml version="1.0" encoding="UTF-8"?>
<svg id="Layer_1" xmlns="http://www.w3.org/2000/svg" viewBox="0 0 172.04 147.47">
  <defs>
    <style>
      .cls-1 {
        fill-rule: evenodd;
      }
    </style>
  </defs>
  <path class="cls-1" d="M16.08,10.36c-1.09.16-2.14,4.19-4.25,6.29-1.55,1.51-3.47,1.42-4.5,3.29-.39.7-.26,1.89-.7,3.04-.86,2.29-3.9,2.49-3.9,4.99,0,2.7,2.53,3.21,4.73,5.12,1.72,1.53,1.88,2.6,3.97,3.35,1.78.6,4.42-1.37,6.8-.66,1.95.58,3.82,1,4.27,3,.39,1.85-.03,4.72-2.4,4.39-.8-.09-4.26-1.25-8.51-.8-5.14.59-10.99,2.26-11.57,7.98-.32,3.2,3.64,6.97,7.46,6.2,2.64-.52,1.39-3.64,2.83-5.15,1.89-1.94,12.57,6.77,22.51,6.77,4.18,0,7.29-1.06,10.38-4.29.29-.25.64-.78,1.09-.81.42.03,1.16.45,1.4.62,8,6.43,14.05,19.33,43.45,19.48,4.14.03,8.84,2,12.69,5.5,3.43,3.17,5.44,8.11,7.39,13.12,2.95,7.51,8.22,14.82,16.21,22.95.44.44,7.02,5.55,7.55,5.93.08.06.57,1.21.4,1.85-.19,4.88-.9,19.05,9.67,19.7,2.58.13,1.91-1.69,1.91-2.93,0-2.47-.45-4.92.84-7.45,1.78-3.47-3.77-5.08-3.61-12.6.12-5.6-4.59-4.65-6.98-8.92-1.38-2.48-2.6-3.79-2.51-6.81.54-17.03-3.62-28.22-5.7-30.97-1.62-2.08-2.96-2.9-1.48-3.86,8.82-5.83,10.82-11.25,10.82-11.25,4.69-11.03,8.91-21.1,14.73-25.53,1.17-.92,4.18-3.16,6.02-4.04,5.43-2.56,8.29-4.11,9.87-5.65,2.49-2.43,4.47-7.5,2.07-10.57-2.98-3.79-8.12-.78-10.39.56-16.22,9.62-18.6,26.6-24.22,36.35-4.48,7.79-11.77,13.51-18.28,13.98-4.88.36-10.15-.62-15.39-2.93-12.75-5.59-19.72-12.81-21.37-14.08-3.42-2.64-30.02-28.75-51.56-29.81,0,0-2.67-5.35-3.35-5.44-1.58-.2-3.19,3.2-4.34,3.59-1.09.36-2.92-3.68-4.01-3.5h0Z"/>
</svg>