<?xml version="1.0" encoding="UTF-8"?>
<svg id="Layer_1" xmlns="http://www.w3.org/2000/svg" viewBox="0 0 146 90.27">
  <g id="g3847">
    <g id="svg_1">
      <path id="svg_2" d="M93.67,65.84c15.98-6.36,25.93-10.02,52.33-16.45-14.35.95-45.97,3.05-67.77,7.38-.07-.07,15.1,8.87,15.44,9.07Z"/>
    </g>
    <g id="svg_3">
      <path id="svg_4" d="M43.98,87.03h20.92c4.06-6.23,8.33-9.34,13-12.73-3.59-1.42-7.24-2.78-10.97-4.06-13.34,5.82-20.78,13.68-22.95,16.79h0Z"/>
    </g>
    <g id="svg_5">
      <path id="svg_6" d="M48.11,64.21c-18.62,6.63-28.97,13.95-35.95,22.81h23.02c2.23-3.18,10.83-12.19,26.94-18.41-4.54-1.56-12.19-3.93-14.01-4.4h0Z"/>
    </g>
    <g id="svg_7">
      <path id="svg_8" d="M57.72,50.13H6.74c51.38,9.34,76.16,21.33,116.1,38.18-3.52-2.5-58.49-34.86-65.13-38.18Z"/>
    </g>
    <g id="svg_9">
      <path id="svg_10" d="M112.22,20.55c-6.77,0-11.24,3.99-11.24,9.95s4.87,9.95,11.24,9.95,11.31-4.13,11.31-9.95-4.54-9.95-11.31-9.95ZM112.22,35.57c-2.84,0-5.08-2.3-5.08-5.08s2.3-5.08,5.08-5.08,5.08,2.3,5.08,5.08-2.23,5.08-5.08,5.08Z"/>
    </g>
    <g id="svg_11">
      <path id="svg_12" d="M89.54,20.82h-4.06v5.15h2.78c2.23,0,4.06,1.96,4.06,4.33,0,2.91-2.37,4.33-3.93,4.4h-5.01V15.47h-6.23v24.37h11.24c4.94,0,10.29-3.72,10.29-9.34-.14-6.03-4.74-9.68-9.14-9.68h0Z"/>
    </g>
    <g id="svg_13">
      <path id="svg_14" d="M33.35,30.29c0-2.44,1.96-4.4,4.33-4.4h4.94l-3.99,6.7h5.96l3.99-6.23v-5.48h-11.91c-5.21,0-9.41,4.27-9.41,9.48s4.2,9.48,9.41,9.48h11.91v-5.15h-10.9c-2.37,0-4.33-1.96-4.33-4.4h0Z"/>
    </g>
    <g id="svg_15">
      <path id="svg_16" d="M15.61,15.47H.45v24.37h6.03v-19.02h7.85c2.17,0,4.47,1.15,4.47,4.33,0,2.44-1.76,4.33-4.13,4.33h-6.03v5.08h4.27c3.66.14,5.21,1.83,5.28,5.42v5.21h6.36v-6.97c0-3.66-2.57-5.55-5.08-6.16,3.93-1.35,5.89-4.4,5.89-8.12-.2-5.21-5.15-8.46-9.75-8.46Z"/>
    </g>
    <g id="svg_17">
      <path id="svg_18" d="M140.31,29.69c4.2-1.29,5.42-3.59,5.42-8.19v-.68h-6.16v1.02c0,3.05-1.29,5.28-4.2,5.28h-2.91v-11.64h-6.23v24.37h6.23v-7.58h2.23c3.11,0,5.01,1.76,5.01,4.6v2.98h6.23v-2.78c0-3.66-1.62-6.3-5.62-7.38h0Z"/>
    </g>
    <g id="svg_19">
      <path id="svg_20" d="M57.65,30.29c0-2.44,1.96-4.4,4.33-4.4h4.94l-3.99,6.63h5.96l3.99-6.23v-5.48h-11.91c-5.21,0-9.41,4.27-9.41,9.48s4.2,9.48,9.41,9.48h11.91v-5.15h-10.97c-2.3.07-4.27-1.9-4.27-4.33Z"/>
    </g>
  </g>
</svg>